Coordinates
version=1
nRows=14
nColumns=28
inDegrees=yes

Units are S.I. units (second, meters, Newtons, ...)
Angles are in degrees.

endheader
time	pelvis_tilt	pelvis_list	pelvis_rotation	pelvis_tx	pelvis_ty	pelvis_tz	hip_flexion_r	hip_adduction_r	hip_rotation_r	knee_angle_r	ankle_angle_r	subtalar_angle_r	mtp_angle_r	hip_flexion_l	hip_adduction_l	hip_rotation_l	knee_angle_l	socket_flexion	socket_adduction	socket_rotation	socket_tx	socket_ty	socket_tz	foot_flex	lumbar_extension	lumbar_bending	lumbar_rotation
      0.30000000	     -0.12959788	     -1.00557303	     -5.43360707	     -0.47470948	      1.02438652	      0.29734776	     14.09794029	      1.29941256	     -0.63130044	    -66.44399341	      8.75695415	    -14.33950019	     -5.25178572	      2.30372501	      0.15356746	     -6.98700057	     -1.35771982	     -0.48185350	      1.49232424	     15.53451023	      0.00000000	     -0.03250095	      0.00000000	     -3.06210063	     -9.40788831	     -2.54692301	      4.20778217
      0.30416667	      0.00708987	     -1.39561425	     -5.20995212	     -0.46892783	      1.02514392	      0.29677915	     14.39248779	      1.64287096	     -0.91867738	    -66.08766211	      9.65530144	    -13.15930099	     -5.10378518	      1.57814651	     -0.18556762	     -6.93554545	     -0.84114903	     -0.25945429	      1.59357567	     15.74427802	      0.00000000	     -0.03274700	      0.00000000	     -2.85992838	     -9.55829357	     -1.96819560	      3.73237483
      0.30833333	      0.05606062	     -1.41393637	     -5.11034161	     -0.46372776	      1.02582263	      0.29668178	     14.93751870	      1.69099932	     -0.96330596	    -65.82817208	      9.75367028	    -13.15411866	     -5.08834293	      1.20162298	     -0.17608803	     -6.93384469	     -0.86410625	     -0.35094602	      1.57877728	     15.75986649	      0.00000000	     -0.03235402	      0.00000000	     -2.82719454	     -9.65211655	     -1.95918990	      3.72087907
      0.31250000	      0.41006607	     -1.72811801	     -4.81181796	     -0.45802678	      1.02684357	      0.29604401	     14.97365989	      1.89901823	     -1.32468405	    -65.39798775	     10.78443366	    -12.24167519	     -5.32319747	      0.08620555	     -0.39486949	     -6.55705275	      0.18606555	      0.24147162	      1.76941312	     15.66432157	      0.00000000	     -0.03227690	      0.00000000	     -2.56866932	    -10.07500701	     -1.51161739	      3.31838479
      0.31666667	      0.45112788	     -1.74068599	     -4.73609459	     -0.45286459	      1.02745233	      0.29601951	     15.52025499	      1.94405936	     -1.35965006	    -65.07823497	     10.85537590	    -12.23734533	     -5.31332181	     -0.27745820	     -0.38847873	     -6.55629350	      0.15855935	      0.12600106	      1.75063138	     15.67358731	      0.00000000	     -0.03187438	      0.00000000	     -2.54235103	    -10.15130120	     -1.50879645	      3.31093054
      0.32083333	      0.41652498	     -2.10673489	     -4.50448240	     -0.44707265	      1.02790754	      0.29569650	     15.93442862	      2.33913748	     -1.59402334	    -64.51427853	     11.60216429	    -11.88705576	     -5.19192724	     -0.71093994	     -0.76389724	     -6.55624861	      0.37626241	      0.17958434	      1.82519700	     15.98114812	      0.00000000	     -0.03212276	      0.00000000	     -2.21541909	    -10.07018441	     -1.02200640	      3.17743927
      0.32500000	      0.49753975	     -2.38307470	     -4.31110388	     -0.44150653	      1.02851339	      0.29533720	     16.26919497	      2.59346828	     -1.81124613	    -63.95668806	     12.02129485	    -11.35143221	     -5.19186459	     -1.24612185	     -1.02579296	     -6.53718029	      0.60604296	      0.23456868	      1.87483267	     16.12330115	      0.00000000	     -0.03210221	      0.00000000	     -2.08563569	    -10.16452184	     -0.62967020	      2.93106193
      0.32916667	      0.53982117	     -2.38653170	     -4.23788047	     -0.43645242	      1.02895388	      0.29531882	     16.79517661	      2.61613030	     -1.85317688	    -63.55349217	     12.10064394	    -11.33716769	     -5.18668648	     -1.59824254	     -1.01022781	     -6.54242696	      0.57301316	      0.15423334	      1.85657311	     16.12566058	      0.00000000	     -0.03179720	      0.00000000	     -2.06332410	    -10.26304290	     -0.62872792	      2.91477507
      0.33333333	      0.66923747	     -2.76914275	     -3.93059446	     -0.43059950	      1.02961292	      0.29477611	     16.95366713	      2.93717495	     -2.21317911	    -62.80025700	     12.78621130	    -10.78195806	     -5.19221815	     -2.23863705	     -1.38489159	     -6.49474508	      0.91643686	      0.27830601	      1.93015678	     16.39245854	      0.00000000	     -0.03190207	      0.00000000	     -1.78939373	    -10.36690160	     -0.09498139	      2.59724385
      0.33750000	      0.70926303	     -2.76479304	     -3.87354038	     -0.42562033	      1.02994147	      0.29480364	     17.48180691	      2.94570128	     -2.25731272	    -62.36815726	     12.85303162	    -10.77646359	     -5.19104426	     -2.58267960	     -1.36663212	     -6.50166160	      0.88246491	      0.19536460	      1.90932376	     16.38952967	      0.00000000	     -0.03163875	      0.00000000	     -1.77245316	    -10.47349365	     -0.10497242	      2.58306481
      0.34166667	      1.25924041	     -3.16236187	     -3.48205401	     -0.41970289	      1.03126981	      0.29407657	     17.08027860	      3.20485109	     -2.71572361	    -61.39951394	     13.61908822	    -10.18422243	     -5.81831672	     -3.87110916	     -1.71085022	     -6.23291216	      1.79789211	      0.64089276	      2.07624370	     16.44443503	      0.00000000	     -0.03136936	      0.00000000	     -1.55403455	    -11.05252501	      0.44346977	      2.07914202
      0.34583333	      1.25527007	     -3.18285953	     -3.38384521	     -0.41446035	      1.03163178	      0.29404068	     17.53342017	      3.24369446	     -2.76708900	    -60.74826606	     13.78035114	    -10.17802969	     -5.82541855	     -4.19378437	     -1.72145481	     -6.25455183	      1.80491296	      0.58659104	      2.05722128	     16.47299463	      0.00000000	     -0.03100731	      0.00000000	     -1.47704461	    -11.04528844	      0.47086368	      2.07974646
      0.35000000	      1.25852287	     -3.52867813	     -3.16188595	     -0.40880556	      1.03187841	      0.29371804	     17.84585290	      3.55793301	     -3.07119699	    -59.93458353	     14.21150188	    -10.00160654	     -5.93755341	     -4.65353901	     -2.09137011	     -6.27326787	      2.05360389	      0.66510344	      2.13384826	     16.72745973	      0.00000000	     -0.03124978	      0.00000000	     -1.21894015	    -11.01223659	      0.93921390	      1.93773700
      0.35416667	      1.27329820	     -3.52528661	     -3.06125717	     -0.40360962	      1.03218408	      0.29367929	     18.25234662	      3.56036990	     -3.12129115	    -59.21697487	     14.34774643	    -10.01034514	     -5.95825852	     -4.98714595	     -2.07721294	     -6.29442407	      2.05073521	      0.61396096	      2.10715086	     16.73807441	      0.00000000	     -0.03091138	      0.00000000	     -1.16980691	    -11.04298148	      0.94358389	      1.90983810
